<svg xmlns="http://www.w3.org/2000/svg" viewBox="0 0 1743 338.503">
  <title>logo</title>
  <g id="Layer_2" data-name="Layer 2">
    <g id="Layer_2-2" data-name="Layer 2">
      <g>
        <path d="M351,0,316.11,130.193H211.955l14.061-52.077H173.939L124.986,260.387h52.078l14.06-52.077H295.279L260.386,338.5H0L90.615,0Z"/>
        <path d="M462.5,165.455,491.487,57.3h86.525L502.735,338.5H416.212L445.2,230.347H315.41L361.7,57.3h86.523L419.241,165.455Z"/>
        <path d="M668.709,338.5l-106.137-.4,133.781-66.89L574.894,223.684l133.781-51.047L594.257,121.589,721,67.02,610.1,7.171,787.347,7.1H999.172q1.02,0,2.021.06c25.546,1.518,36.539,33.118,18.575,51.345-6.027,6.115-12.723,14.659-15.367,24.357-3.081,11.3-1.808,19.993-.212,25.28a38.865,38.865,0,0,1-1.013,26.486,44.533,44.533,0,0,1-9.832,14.381l-2.947,2.884a41.3,41.3,0,0,0-8.317,47.458l1.735,5.34a42.239,42.239,0,0,1-4.128,35.319c-3.829,6.169-8.631,12.353-13.441,19.762-4.632,7.136-9.252,15.2-8.638,23.682.4,5.5,2.765,10.721,4.481,16.7a29.863,29.863,0,0,1-28.74,37.981ZM821,262.025h50.986l13.766-50.984H834.763ZM868.923,83.579l-13.766,50.984h50.985l13.765-50.984Z"/>
        <path d="M1091.041,230.347,1062.055,338.5H975.531l14.74-55.062,11.863-14.778a82.875,82.875,0,0,0,17.044-65.956l-.208-1.2a42.666,42.666,0,0,1,5.244-28.832l7.426-12.659a92.582,92.582,0,0,0,12.7-48.757l-.572-27.677,3.5-13.063A17.826,17.826,0,0,1,1064.488,57.3h202.63l-46.292,173.047h-43.26l25.09,108.156h-86.523Zm28.986-108.154-11.681,43.262h43.263l11.68-43.262Z"/>
        <path d="M1429.783,338.5h-216.31l75.275-281.2h216.311ZM1317.3,273.61h43.263l40.666-151.417h-43.262Z"/>
        <path d="M1639.171,122.193h-43.262l-11.681,43.262h129.786L1667.724,338.5h-216.31l23.144-86.524h86.525l-5.841,21.631h43.263l11.68-43.263H1480.4L1526.689,57.3H1743l-23.145,86.525H1633.33Z"/>
      </g>
    </g>
  </g>
</svg>
